<svg xmlns="http://www.w3.org/2000/svg" viewBox="0 0 100 100"><defs><style>.cls-1{fill:#4949e7}.cls-3{fill:#5eb2fc}.cls-5{fill:#92cdfa}.cls-6{fill:#1273eb}</style></defs><g id="seleccionados_expandidos" data-name="seleccionados expandidos"><path class="cls-1" d="M47.2 84.17c-5.42.44-16.71-.82-23.81-8.66-8.37-9.25-7.3-31.83-6.73-44 .1-2.21.19-4.12.19-5.39 0-7.84-2.31-25.78-2.34-26v-.19H0V100h47.5v-.07a124.87 124.87 0 0 0-.3-15.76z"/><path d="M17.51 0c.24 1.87 2.34 18.44 2.34 26.15 0 1.34-.09 3.19-.2 5.53-.55 11.7-1.58 33.48 6 41.81 6.47 7.15 17.32 8.41 22.64 7.53l1.51-.25.08.55c11.58-1.91 24.59-6.8 24.59-6.8C71.53 85.75 55.64 94 50.6 96.37c0 2.06-.1 3.47-.11 3.63H100V0z" fill="#c7ebff"/><ellipse class="cls-1" cx="28.97" cy="23.75" rx="2.12" ry="2.65"/><ellipse class="cls-1" cx="59.35" cy="22.97" rx="2.12" ry="2.65"/><path class="cls-3" d="M36 49.07a2.58 2.58 0 0 1-2.52.42 2.13 2.13 0 0 1-1.4-1.28c-.2-.89.18-1.3 2.2-3l.53-.44c2.87-2.43 2-7.52 1.93-8.09a1.55 1.55 0 0 0-3.05.56c.18 1 .41 4.07-.88 5.17l-.52.44c-2.08 1.74-3.87 3.25-3.23 6.06a5.13 5.13 0 0 0 3.39 3.52 5.82 5.82 0 0 0 1.93.34 5.67 5.67 0 0 0 3.52-1.27 1.55 1.55 0 0 0-1.9-2.43z"/><path d="M58.52 53.44a1.5 1.5 0 0 0-2.1.29c-4.79 6.33-10.84 5.33-11.1 5.27a1.5 1.5 0 0 0-1.5 2.33 1.49 1.49 0 0 0 1 .62 9.74 9.74 0 0 0 1.66.12c2.77 0 8.05-.85 12.36-6.55a1.5 1.5 0 0 0-.32-2.08z" fill="#2c8cf4"/><ellipse class="cls-5" cx="23.68" cy="36.91" rx="1.2" ry="1.01"/><circle class="cls-5" cx="24.53" cy="43.56" r="1.04"/><ellipse class="cls-5" cx="29.73" cy="37.69" rx="1.36" ry="1.04"/><ellipse class="cls-5" cx="46.68" cy="36.77" rx="1.2" ry=".92"/><ellipse class="cls-5" cx="58.72" cy="36.54" rx="1.43" ry="1.15"/><ellipse class="cls-5" cx="53.74" cy="43.38" rx="1.17" ry="1.01" transform="rotate(-9.85 53.782 43.39)"/><ellipse class="cls-5" cx="68.86" cy="33.65" rx="1.55" ry="1.26" transform="rotate(-3.71 68.766 33.6)"/><path class="cls-5" d="M50.6 96.37c5-2.37 20.92-10.62 23.83-21.86 0 0-13 4.89-24.59 6.8l.14 1a98.46 98.46 0 0 1 .62 14.06z"/><path class="cls-6" d="M65.89 7.1a18.19 18.19 0 0 0-3.76-1.41 16 16 0 0 0-8.13.12 14.54 14.54 0 0 0-4 1.69l-.12.08a1.95 1.95 0 0 0 .86 3.49h.29a2 2 0 0 0 1.22-.42 9.54 9.54 0 0 1 1.27-.75A13.4 13.4 0 0 1 55 9.31a12.54 12.54 0 0 1 6.41-.47 15.43 15.43 0 0 1 3.24 1 1.5 1.5 0 0 0 1.2-2.74zM29 10.72a4.76 4.76 0 0 1 1.22 1.37l.06.1a1.5 1.5 0 0 0 2.53-1.6 7.79 7.79 0 0 0-2-2.33 8.25 8.25 0 0 0-2.74-1.33 11.31 11.31 0 0 0-2.86-.36 12.54 12.54 0 0 0-2.84.31 1.63 1.63 0 1 0 .84 3.12 9.72 9.72 0 0 1 2.06-.27 8.15 8.15 0 0 1 2 .2 5.12 5.12 0 0 1 1.73.79zm-6.4-2.88z"/><path class="cls-3" d="M50 82.29l-.14-1-.08-.55-1.53.26c-5.32.89-16.17-.37-22.64-7.53-7.54-8.33-6.51-30.11-6-41.81.11-2.34.2-4.19.2-5.53 0-7.71-2.1-24.28-2.34-26.15h-3v.19c0 .18 2.34 18.11 2.34 26 0 1.27-.09 3.18-.19 5.39-.57 12.13-1.64 34.71 6.73 44 7.1 7.85 18.39 9.11 23.81 8.66a124.87 124.87 0 0 1 .31 15.76v.02h3c0-.16.07-1.57.11-3.63A98.46 98.46 0 0 0 50 82.29z"/></g></svg>